/* XPM */
static char * bitcoin16_xpm[] = {
"16 16 198 2",
"  	c None",
". 	c #191919",
"+ 	c #3B3B39",
"@ 	c #1D1D1C",
"# 	c #2E2E2C",
"$ 	c #141413",
"% 	c #111111",
"& 	c #444442",
"* 	c #454545",
"= 	c #1C1C19",
"- 	c #4C4C46",
"; 	c #232320",
"> 	c #262623",
", 	c #686863",
"' 	c #777774",
") 	c #252524",
"! 	c #121211",
"~ 	c #3D3D3C",
"{ 	c #4F4F4C",
"] 	c #5F6155",
"^ 	c #191817",
"/ 	c #434242",
"( 	c #6F6D6D",
"_ 	c #777474",
": 	c #393737",
"< 	c #050505",
"[ 	c #3E3E39",
"} 	c #60605A",
"| 	c #161614",
"1 	c #2A2A29",
"2 	c #5C5B56",
"3 	c #89AB92",
"4 	c #105725",
"5 	c #1E1D1D",
"6 	c #C8C4C4",
"7 	c #C8C3C3",
"8 	c #C3BEBE",
"9 	c #CCC7C7",
"0 	c #A5A1A1",
"a 	c #575555",
"b 	c #10100E",
"c 	c #060605",
"d 	c #302F2D",
"e 	c #53534B",
"f 	c #598B68",
"g 	c #39864F",
"h 	c #226833",
"i 	c #3E3E35",
"j 	c #666363",
"k 	c #C6C2C2",
"l 	c #C5C1C1",
"m 	c #CAC5C5",
"n 	c #938F8F",
"o 	c #656363",
"p 	c #ACA8A8",
"q 	c #7C7A7A",
"r 	c #444341",
"s 	c #373730",
"t 	c #3C3F33",
"u 	c #1B4927",
"v 	c #196C32",
"w 	c #2B713F",
"x 	c #515045",
"y 	c #686666",
"z 	c #CAC6C6",
"A 	c #C9C4C4",
"B 	c #1F1F1F",
"C 	c #4B4A46",
"D 	c #393933",
"E 	c #1C1B1B",
"F 	c #979393",
"G 	c #383735",
"H 	c #908F8D",
"I 	c #969393",
"J 	c #696766",
"K 	c #212120",
"L 	c #1E4A2A",
"M 	c #196B31",
"N 	c #2F7542",
"O 	c #57574B",
"P 	c #666464",
"Q 	c #757272",
"R 	c #4B7B59",
"S 	c #3D4134",
"T 	c #1E1E1D",
"U 	c #C6C1C1",
"V 	c #454443",
"W 	c #CCC8C8",
"X 	c #D5D1D1",
"Y 	c #CDC8C8",
"Z 	c #737171",
"` 	c #20201F",
" .	c #224629",
"..	c #18632D",
"+.	c #2B7440",
"@.	c #747667",
"#.	c #76766E",
"$.	c #829481",
"%.	c #468257",
"&.	c #706D6D",
"*.	c #51504F",
"=.	c #B9B5B5",
"-.	c #6E6C6C",
";.	c #525050",
">.	c #6C6A6A",
",.	c #3E3D3C",
"'.	c #405B3E",
").	c #196D31",
"!.	c #347948",
"~.	c #3B6247",
"{.	c #396645",
"].	c #327946",
"^.	c #1D4023",
"/.	c #2B2B28",
"(.	c #727070",
"_.	c #3F3D3D",
":.	c #3F3E3D",
"<.	c #64645E",
"[.	c #72726B",
"}.	c #5B5B54",
"|.	c #3F3F39",
"1.	c #22221F",
"2.	c #255331",
"3.	c #256034",
"4.	c #1F5A2E",
"5.	c #3C7749",
"6.	c #144F25",
"7.	c #255931",
"8.	c #426140",
"9.	c #303028",
"0.	c #232322",
"a.	c #41413E",
"b.	c #070706",
"c.	c #050504",
"d.	c #010101",
"e.	c #080807",
"f.	c #040404",
"g.	c #5F6457",
"h.	c #427B53",
"i.	c #296437",
"j.	c #437E52",
"k.	c #3C764A",
"l.	c #245F31",
"m.	c #165026",
"n.	c #145927",
"o.	c #333B2C",
"p.	c #141412",
"q.	c #959292",
"r.	c #8D8989",
"s.	c #BDB9B9",
"t.	c #A3A0A0",
"u.	c #585656",
"v.	c #616856",
"w.	c #1B6E3B",
"x.	c #0E5328",
"y.	c #1A5E30",
"z.	c #115428",
"A.	c #125429",
"B.	c #093F1C",
"C.	c #0B3518",
"D.	c #21211B",
"E.	c #0B0B0A",
"F.	c #333330",
"G.	c #848181",
"H.	c #ABA7A7",
"I.	c #2A2925",
"J.	c #0C5325",
"K.	c #07441F",
"L.	c #0A5125",
"M.	c #0C5126",
"N.	c #07401E",
"O.	c #052C14",
"P.	c #1B1B16",
"Q.	c #393836",
"R.	c #969292",
"S.	c #666565",
"T.	c #32322C",
"U.	c #1B3F23",
"V.	c #062F15",
"W.	c #062A14",
"X.	c #06220F",
"Y.	c #10100D",
"Z.	c #191917",
"`.	c #282825",
" +	c #2C2B2A",
".+	c #4A4848",
"++	c #676464",
"@+	c #424040",
"#+	c #1C1C18",
"$+	c #22221C",
"%+	c #1A1B16",
"&+	c #131412",
"*+	c #242421",
"=+	c #2A2927",
"-+	c #2B2A28",
";+	c #262524",
">+	c #1B1B19",
",+	c #151513",
"          . + @ # $ %           ",
"      & * = - ; > , ' ) !       ",
"    ~ { ] ^ / ( _ : < [ } |     ",
"  1 2 3 4 5 6 7 8 9 0 a b c d   ",
"  e f g h i j k l 9 m n o p q   ",
"r s t u v w x y z A B C D E F G ",
"H I J K L M N O P Q 5 R S T U V ",
"W X Y Z `  ...+.@.#.$.%.5 &.W *.",
"=.-.;.>.,.% '.).!.~.{.].^./.(._.",
":.<.[.}.}.|.1.2.3.4.5.6.7.8.9.0.",
"a.b.c.d.e.f.g.h.i.j.k.l.m.n.o.p.",
"  q.r.s.t.u.v.w.x.y.z.A.B.C.D.E.",
"  F.G.H.7 H.I.J.K.L.M.N.O.P.b.  ",
"    Q.y R.l S.T.U.V.W.X.Y.Z.    ",
"      `. +.+++@+#+$+%+b &+      ",
"          *+=+-+;+>+,+          "};
