/* XPM */
static char * bitcoin32_xpm[] = {
"32 32 583 2",
"  	c None",
". 	c #000000",
"+ 	c #1F1F1E",
"@ 	c #323232",
"# 	c #525250",
"$ 	c #191918",
"% 	c #20201F",
"& 	c #181817",
"* 	c #2E2E2D",
"= 	c #0E0E0E",
"- 	c #030303",
"; 	c #373737",
"> 	c #1D1D1C",
", 	c #555553",
"' 	c #A0A09E",
") 	c #989897",
"! 	c #242422",
"~ 	c #888885",
"{ 	c #696965",
"] 	c #5C5C59",
"^ 	c #54544F",
"/ 	c #51514B",
"( 	c #5D5D57",
"_ 	c #80807C",
": 	c #666663",
"< 	c #5A5A57",
"[ 	c #313130",
"} 	c #0A0A0A",
"| 	c #2D2D2B",
"1 	c #91918E",
"2 	c #DFDFDE",
"3 	c #DEDCDB",
"4 	c #D5D2D2",
"5 	c #757272",
"6 	c #090908",
"7 	c #111110",
"8 	c #020202",
"9 	c #010101",
"0 	c #424141",
"a 	c #10100F",
"b 	c #484846",
"c 	c #6D6D67",
"d 	c #74746F",
"e 	c #2B2B2A",
"f 	c #302F2E",
"g 	c #3F403C",
"h 	c #BBBAB9",
"i 	c #BAB9B8",
"j 	c #676766",
"k 	c #6D6B6B",
"l 	c #B7B3B3",
"m 	c #CEC9C9",
"n 	c #A29E9E",
"o 	c #686666",
"p 	c #B8B4B4",
"q 	c #BFBCBC",
"r 	c #C1BCBC",
"s 	c #BEBABA",
"t 	c #726F6F",
"u 	c #050505",
"v 	c #1D1D1B",
"w 	c #282825",
"x 	c #8A8A8D",
"y 	c #595954",
"z 	c #222220",
"A 	c #040403",
"B 	c #434441",
"C 	c #929090",
"D 	c #505050",
"E 	c #3F3F3D",
"F 	c #7D8176",
"G 	c #616456",
"H 	c #21201F",
"I 	c #CCC8C8",
"J 	c #CECACA",
"K 	c #C9C4C4",
"L 	c #C6C1C1",
"M 	c #CCC7C7",
"N 	c #CBC6C6",
"O 	c #C8C3C3",
"P 	c #AFABAB",
"Q 	c #8C8A8A",
"R 	c #363535",
"S 	c #535151",
"T 	c #0C0C0B",
"U 	c #262624",
"V 	c #2E2E2B",
"W 	c #0A0A09",
"X 	c #20201E",
"Y 	c #636362",
"Z 	c #333331",
"` 	c #909B8D",
" .	c #83AC8F",
"..	c #639B73",
"+.	c #0E471E",
"@.	c #2A2A25",
"#.	c #9D9A9A",
"$.	c #C4BFBF",
"%.	c #B7B3B2",
"&.	c #CAC5C5",
"*.	c #CDC8C8",
"=.	c #BDB9B9",
"-.	c #BBB6B6",
";.	c #898585",
">.	c #8E8A89",
",.	c #535351",
"'.	c #4D4D49",
").	c #8CB096",
"!.	c #67A278",
"~.	c #308547",
"{.	c #16712F",
"].	c #284328",
"^.	c #3A3838",
"/.	c #CDC9C8",
"(.	c #C9C5C5",
"_.	c #BAB6B5",
":.	c #C5C1C1",
"<.	c #C5C0C0",
"[.	c #969292",
"}.	c #C0BCBC",
"|.	c #C3BEBE",
"1.	c #646261",
"2.	c #3A3B39",
"3.	c #444441",
"4.	c #81A98C",
"5.	c #559968",
"6.	c #1F7C3A",
"7.	c #1D7937",
"8.	c #1D7A37",
"9.	c #1E612E",
"0.	c #2B2A26",
"a.	c #686565",
"b.	c #D1CDCC",
"c.	c #CCC8C7",
"d.	c #C1BDBC",
"e.	c #CDC9C9",
"f.	c #C6C2C2",
"g.	c #A39F9F",
"h.	c #3B3B38",
"i.	c #0E0F0E",
"j.	c #5A5A53",
"k.	c #7B9C81",
"l.	c #529766",
"m.	c #127735",
"n.	c #1D7B38",
"o.	c #297D41",
"p.	c #226635",
"q.	c #3B3A34",
"r.	c #696766",
"s.	c #D0CCCC",
"t.	c #D1CCCC",
"u.	c #BCB8B8",
"v.	c #A9A4A4",
"w.	c #CFCBCA",
"x.	c #CFCBCB",
"y.	c #C8C4C4",
"z.	c #5F5C5C",
"A.	c #373736",
"B.	c #4C4C3F",
"C.	c #0B3D1C",
"D.	c #052A12",
"E.	c #11361B",
"F.	c #115529",
"G.	c #1A7134",
"H.	c #297F42",
"I.	c #266C3A",
"J.	c #424139",
"K.	c #605F5E",
"L.	c #CFCACA",
"M.	c #C7C2C2",
"N.	c #222120",
"O.	c #30302E",
"P.	c #2F2F2F",
"Q.	c #7A7878",
"R.	c #A09C9C",
"S.	c #BFBBBB",
"T.	c #C4C0C0",
"U.	c #949090",
"V.	c #393836",
"W.	c #949291",
"X.	c #1F1F1D",
"Y.	c #1E1E1D",
"Z.	c #292727",
"`.	c #3D4034",
" +	c #0D5326",
".+	c #1A7034",
"++	c #1F7B3A",
"@+	c #227E3D",
"#+	c #2B8043",
"$+	c #424238",
"%+	c #676565",
"&+	c #D2CDCD",
"*+	c #767272",
"=+	c #64645D",
"-+	c #7F9782",
";+	c #636359",
">+	c #33332E",
",+	c #93908F",
"'+	c #C6C3C2",
")+	c #C2BDBD",
"!+	c #494746",
"~+	c #CAC9C8",
"{+	c #B8B5B5",
"]+	c #ACA9A9",
"^+	c #BAB6B6",
"/+	c #6A6868",
"(+	c #48483C",
"_+	c #0D5728",
":+	c #1B7335",
"<+	c #217C3B",
"[+	c #217A3B",
"}+	c #226A36",
"|+	c #4D4C42",
"1+	c #C2BFBE",
"2+	c #767473",
"3+	c #63635A",
"4+	c #397E4C",
"5+	c #0E3E1C",
"6+	c #38382F",
"7+	c #1D1D1D",
"8+	c #646262",
"9+	c #61605D",
"0+	c #CECBCB",
"a+	c #C9C5C4",
"b+	c #636161",
"c+	c #48473B",
"d+	c #0C5426",
"e+	c #1A7033",
"f+	c #1D7A38",
"g+	c #2A8043",
"h+	c #2A703F",
"i+	c #515145",
"j+	c #BCB9B8",
"k+	c #B1AFAE",
"l+	c #888786",
"m+	c #242322",
"n+	c #84A58B",
"o+	c #155728",
"p+	c #615F5F",
"q+	c #B6B2B2",
"r+	c #797777",
"s+	c #32322F",
"t+	c #747270",
"u+	c #CBC7C7",
"v+	c #C2BEBD",
"w+	c #BEBAB9",
"x+	c #656464",
"y+	c #3F3E35",
"z+	c #0B5024",
"A+	c #1A6E32",
"B+	c #1D7836",
"C+	c #1E7C39",
"D+	c #267D3F",
"E+	c #206B36",
"F+	c #5E5E50",
"G+	c #514F4F",
"H+	c #242423",
"I+	c #3C3C39",
"J+	c #4A4A46",
"K+	c #8FA18E",
"L+	c #639E74",
"M+	c #134921",
"N+	c #202020",
"O+	c #CAC7C6",
"P+	c #848181",
"Q+	c #807E7C",
"R+	c #D3CECE",
"S+	c #6A6767",
"T+	c #3B3B32",
"U+	c #0A5023",
"V+	c #197033",
"W+	c #217D3B",
"X+	c #287F40",
"Y+	c #347B48",
"Z+	c #7F8E79",
"`+	c #8CA992",
" @	c #7FAA8B",
".@	c #699978",
"+@	c #559667",
"@@	c #227B3C",
"#@	c #14652B",
"$@	c #5C5A5A",
"%@	c #A7A4A3",
"&@	c #D2CECD",
"*@	c #908C8C",
"=@	c #31302E",
"-@	c #81807E",
";@	c #C7C3C3",
">@	c #A4A0A0",
",@	c #A6A2A2",
"'@	c #D0CBCB",
")@	c #4A4949",
"!@	c #36362E",
"~@	c #094D21",
"{@	c #187033",
"]@	c #237F3D",
"^@	c #1F7A39",
"/@	c #287E40",
"(@	c #32854B",
"_@	c #217539",
":@	c #1A552A",
"<@	c #134E24",
"[@	c #317846",
"}@	c #626C58",
"|@	c #5D5C5C",
"1@	c #8C8989",
"2@	c #2F2F2D",
"3@	c #7F7D7B",
"4@	c #545252",
"5@	c #414140",
"6@	c #3E3E3C",
"7@	c #3D3D3C",
"8@	c #373735",
"9@	c #161616",
"0@	c #3D3D3B",
"a@	c #1A1919",
"b@	c #434340",
"c@	c #2B2A2A",
"d@	c #35352E",
"e@	c #075022",
"f@	c #167234",
"g@	c #1E7B38",
"h@	c #1C7234",
"i@	c #1C7B37",
"j@	c #16602B",
"k@	c #397447",
"l@	c #165026",
"m@	c #1A7234",
"n@	c #175028",
"o@	c #194A27",
"p@	c #535E47",
"q@	c #807C7C",
"r@	c #2D2D2A",
"s@	c #71706E",
"t@	c #ACAAAA",
"u@	c #1A1A18",
"v@	c #A7A7A9",
"w@	c #8E8E91",
"x@	c #8B8B8E",
"y@	c #717174",
"z@	c #6E6E66",
"A@	c #838381",
"B@	c #767679",
"C@	c #1D1D1A",
"D@	c #464545",
"E@	c #666555",
"F@	c #1D7638",
"G@	c #144E24",
"H@	c #1B562B",
"I@	c #165F2B",
"J@	c #1D7335",
"K@	c #144F25",
"L@	c #3B764B",
"M@	c #185327",
"N@	c #196C30",
"O@	c #18672E",
"P@	c #1B552B",
"Q@	c #1A5329",
"R@	c #125826",
"S@	c #3D3C33",
"T@	c #C1BEBD",
"U@	c #747372",
"V@	c #2C2C29",
"W@	c #545350",
"X@	c #0B0B09",
"Y@	c #050504",
"Z@	c #444242",
"`@	c #191919",
" #	c #565454",
".#	c #4D4B4B",
"+#	c #778571",
"@#	c #4A915E",
"##	c #18672F",
"$#	c #2F6A3D",
"%#	c #3A7548",
"&#	c #1C572C",
"*#	c #2C673D",
"=#	c #195529",
"-#	c #17612C",
";#	c #326D40",
">#	c #2C6738",
",#	c #1B7435",
"'#	c #486142",
")#	c #31312B",
"!#	c #A09D9C",
"~#	c #5B5A59",
"{#	c #B0ACAC",
"]#	c #BAB5B5",
"^#	c #8C8888",
"/#	c #908E8E",
"(#	c #9A9797",
"_#	c #A5A2A2",
":#	c #262524",
"<#	c #598D68",
"[#	c #308548",
"}#	c #1D7935",
"|#	c #124C23",
"1#	c #306B40",
"2#	c #326D3E",
"3#	c #215C31",
"4#	c #377248",
"5#	c #1C582B",
"6#	c #2A6639",
"7#	c #235D33",
"8#	c #165126",
"9#	c #18682F",
"0#	c #207B39",
"a#	c #1D5C2B",
"b#	c #424237",
"c#	c #716F6E",
"d#	c #353534",
"e#	c #272824",
"f#	c #8D8988",
"g#	c #B4B0B0",
"h#	c #C1BDBD",
"i#	c #33332F",
"j#	c #448558",
"k#	c #177C3A",
"l#	c #177A36",
"m#	c #14602B",
"n#	c #1B562A",
"o#	c #1F5A30",
"p#	c #336E3F",
"q#	c #397548",
"r#	c #346E3F",
"s#	c #346F44",
"t#	c #255F32",
"u#	c #17602C",
"v#	c #1B7636",
"w#	c #1C7435",
"x#	c #0F5022",
"y#	c #3A3D31",
"z#	c #4F4E4D",
"A#	c #333332",
"B#	c #555351",
"C#	c #ABA9A9",
"D#	c #3A7E50",
"E#	c #0C7B38",
"F#	c #084F23",
"G#	c #1F6538",
"H#	c #24673A",
"I#	c #2D7041",
"J#	c #1F6133",
"K#	c #296A3A",
"L#	c #1E5E31",
"M#	c #1E5D30",
"N#	c #1C5B2E",
"O#	c #195A2D",
"P#	c #104F24",
"Q#	c #186C31",
"R#	c #194623",
"S#	c #35342C",
"T#	c #333431",
"U#	c #959191",
"V#	c #AEAAAA",
"W#	c #376F45",
"X#	c #0F7335",
"Y#	c #0C6E32",
"Z#	c #0E5327",
"`#	c #1D6334",
" $	c #1A6132",
".$	c #155C2E",
"+$	c #175E2F",
"@$	c #12582C",
"#$	c #105529",
"$$	c #0F5529",
"%$	c #0A5125",
"&$	c #076E31",
"*$	c #0C5326",
"=$	c #2A3526",
"-$	c #1E1E1B",
";$	c #2D2D2C",
">$	c #262824",
",$	c #52514E",
"'$	c #CBC7C6",
")$	c #CECAC9",
"!$	c #646161",
"~$	c #5C624D",
"{$	c #116930",
"]$	c #0B7B38",
"^$	c #127337",
"/$	c #0B5F2B",
"($	c #0F5428",
"_$	c #0F5528",
":$	c #0A5024",
"<$	c #12572A",
"[$	c #0E5428",
"}$	c #094E24",
"|$	c #0E6E33",
"1$	c #0D6C31",
"2$	c #083015",
"3$	c #252421",
"4$	c #373635",
"5$	c #363633",
"6$	c #ADA9A9",
"7$	c #A9A6A6",
"8$	c #1E5329",
"9$	c #106B31",
"0$	c #0B7534",
"a$	c #0A4D23",
"b$	c #094D23",
"c$	c #0A4F24",
"d$	c #0A622C",
"e$	c #0E5328",
"f$	c #0B642D",
"g$	c #0A3719",
"h$	c #23261F",
"i$	c #393838",
"j$	c #383836",
"k$	c #6F6C6C",
"l$	c #C0BBBB",
"m$	c #706E6D",
"n$	c #272724",
"o$	c #133D1C",
"p$	c #0E5C2A",
"q$	c #0F7133",
"r$	c #0D7938",
"s$	c #0C5127",
"t$	c #0B5125",
"u$	c #0B7535",
"v$	c #0C7133",
"w$	c #0C5125",
"x$	c #073015",
"y$	c #1F231B",
"z$	c #30302F",
"A$	c #2E2D2A",
"B$	c #31312E",
"C$	c #5B5959",
"D$	c #706D6D",
"E$	c #2D3227",
"F$	c #073014",
"G$	c #0A431D",
"H$	c #0C4B22",
"I$	c #0A4620",
"J$	c #093D1B",
"K$	c #062912",
"L$	c #101D11",
"M$	c #20201D",
"N$	c #383737",
"O$	c #2E2F2D",
"P$	c #323230",
"Q$	c #2F2E2B",
"R$	c #4C4A4A",
"S$	c #8D8989",
"T$	c #C6C2C1",
"U$	c #1F1E1D",
"V$	c #282722",
"W$	c #292A23",
"X$	c #272821",
"Y$	c #252520",
"Z$	c #201F1D",
"`$	c #2A2929",
" %	c #363534",
".%	c #383837",
"+%	c #31322E",
"@%	c #292928",
"#%	c #4E4C4C",
"$%	c #979494",
"%%	c #BFBABA",
"&%	c #B7B5B4",
"*%	c #8A8887",
"=%	c #706E6E",
"-%	c #6C6A6A",
";%	c #5B5958",
">%	c #3C3C3B",
",%	c #353532",
"'%	c #2A2A27",
")%	c #282726",
"!%	c #737070",
"~%	c #B8B5B4",
"{%	c #B8B4B3",
"]%	c #BDB8B8",
"^%	c #989594",
"/%	c #5D5C5B",
"(%	c #383635",
"_%	c #30302D",
":%	c #252523",
"<%	c #282826",
"[%	c #292827",
"}%	c #2A2A29",
"|%	c #2C2C2B",
"1%	c #2D2C2B",
"2%	c #2B2B28",
"                          .                                     ",
"                      + @ # $ % & * = - ; >                     ",
"                , ' ) ! ~ { ] ^ / ( _ : < [ } |                 ",
"              1 2 3 4 5 6 7 8 9 . 0 a b c d _ e f               ",
"          g h i j k l m n o p q r s t u u v w x y z A           ",
"        B C D E F G H I J K L M N O M P Q R S T U V W X         ",
"        Y Z `  ...+.@.#.$.%.$.M &.*.m K K =.-.;.T . . >.        ",
"      ,.'.).!.~.{.].^./.(._.M N :.r M O N <.r I [.}.O |.1.      ",
"    2.3.4.5.6.7.8.9.0.a.b.:.c.M N :.&.s d.*.K e.f.N M m g.h.    ",
"  i.j.k.l.m.8.8.n.o.p.q.r.s.t.b.e.M M /.N u.v.*.t.w.x.M y.z.    ",
"  A.B.C.D.E.F.G.7.n.H.I.J.K.M L.M &.r M.$.N.O.P.Q.R.M S.T.U.V.  ",
"  W.H X.Y.Z.`. +.+++@+#+I.$+%+&+x.O m *.(.*+=+-+;+>+,+'+c.)+!+  ",
"  ~+s.{+]+^+/+(+_+:+<+n.[+}+|+/+L.1+x.&+b.2+3+4+5+6+7+*.m M 8+  ",
"9+0+T.M x.a+S.b+c+d+e+f+f+g+h+i+K.j+c.k+l+m+n+o+@.p+q+L.*.&.r+s+",
"t+0+u+&.T.v+w.w+x+y+z+A+B+C+D+E+F+G+H+I+J+K+L+M+N+=.O+K &.I P+O.",
"Q+u+L K K *.t.R+s.S+T+U+V+n.W+X+Y+Z+`+ @.@+@@@#@$+$@%@&@m L.*@=@",
"-@;@O n >@>@,@}.n '@)@!@~@{@]@<+^@/@(@_@:@<@++g+[@}@|@]+s.x.1@2@",
"3@:.4@5@6@7@8@9@0@a@b@c@d@e@f@g@h@8.i@j@k@l@m@n.n@o@p@p+O %.q@r@",
"s@t@u@v@w@x@y@z@x A@B@C@D@E@F@G@H@I@J@K@L@M@N@O@P@Q@R@S@1@T@U@V@",
"W@p G+X@Y@- - Z@- `@-  #.#+#@###$#%#I@&#*#=#-#;#>#o+,#'#)#!#~#V@",
"  {#]#^#/#n g.$.(#m _#u.:#<#[#}#|#1#2#3#4#5#6#7#8#9#0#a#b#c#d#e#",
"  f#g#N m m M h#|.s.s.{#i#j#k#l#m#n#o#p#q#r#s#t#u#v#w#x#y#z#A#  ",
"  B#g.L N K O K $.M |.C#V D#E#F#G#H#I#J#K#L#M#N#O#P#Q#R#S#f T#  ",
"    U#V#)+r N L :.*.m M N+W#X#Y#Z#`# $.$+$@$#$$$%$&$*$=$-$;$>$  ",
"    ,$U.L m m *.*.'$I )$!$~${$]$^$/$($_$:$<$[$}$|$1$2$3$4$5$    ",
"      c#6$J *.M &.N M.e.7$z 8$9$0$a$b$c$Z#d$:$e$f$g$h$i$j$      ",
"        k$R.|.)+$.l$K m /.m$n$o$p$q$r$s$t$u$v$w$x$y$d#z$A$      ",
"        B$C$n e.*.x.J L.M x.D$N.E$F$G$H$I$J$K$L$M$N$O$P$        ",
"          Q$R$S$g#O I m *.T$c._#C$U$V$W$X$Y$Z$`$ %.%+%          ",
"              @%#%$%}.%%f.)+N L l$&%*%=%-%-%;%>%,%'%            ",
"                n$)%Z@!%g.{#$.S.~%{%]%^%/%(%P$_%                ",
"                    :%<%)%[%}%e |%;$;$1%| 2%                    "};
